# xmcd
#
# Track frame offsets:
#	182
#	17032
#	37360
#	84377
#	107300
#	140620
#	173120
#	211222
#	251565
#	271662
#
# Disc length: 4021 seconds
#
# Revision: 6
# Processed by: cddbd v1.5.1PL2 Copyright (c) Steve Scherf et al.
# Submitted via: audiograbber 1.82.02
#
DISCID=810fb30a
DTITLE=Albert King - Live
DYEAR=1992
DGENRE=Blues
TTITLE0=Watermelon Man
TTITLE1=Don't Burn Down The Bridge
TTITLE2=Blues At Sunrise
TTITLE3=That's What The Blues Is All About
TTITLE4=Stormy Monday
TTITLE5=Kansas City
TTITLE6=I'm Gonna Call You As Soon As The Sun Goes Down
TTITLE7=As The Years Go Passing By
TTITLE8=Overall Junction
TTITLE9=I'll Play The Blues For You
EXTD=YEAR: 1992
EXTT0=
EXTT1=
EXTT2=
EXTT3=
EXTT4=
EXTT5=
EXTT6=
EXTT7=
EXTT8=
EXTT9=
PLAYORDER=
